<svg width="15" height="24" viewBox="0 0 15 24" fill="none" xmlns="http://www.w3.org/2000/svg">
<path d="M12.5625 6.70312C12.5625 3.78243 10.1863 1.40625 7.26562 1.40625C4.34493 1.40625 1.96875 3.78243 1.96875 6.70312C1.96875 9.62382 4.34493 12 7.26562 12C10.1863 12 12.5625 9.62382 12.5625 6.70312Z" fill="#706FE5"/>
<path d="M14.5312 17.9062V2.57812C14.5312 1.15655 13.3747 0 11.9531 0H2.57812C1.15655 0 0 1.15655 0 2.57812V17.9062H14.5312ZM9.14062 15.0938H5.39062C5.00231 15.0938 4.6875 14.7789 4.6875 14.3906C4.6875 14.0023 5.00231 13.6875 5.39062 13.6875H9.14062C9.52894 13.6875 9.84375 14.0023 9.84375 14.3906C9.84375 14.7789 9.52894 15.0938 9.14062 15.0938ZM3.51562 6.42188H4.30153C4.37766 6.10106 4.50417 5.79961 4.67302 5.52675L4.1168 4.97053C3.8422 4.69594 3.8422 4.25077 4.1168 3.97617C4.39134 3.70158 4.83656 3.70158 5.11116 3.97617L5.66738 4.53239C5.94023 4.36355 6.24169 4.23703 6.5625 4.16091V3.375C6.5625 2.98669 6.87731 2.67188 7.26562 2.67188C7.65394 2.67188 7.96875 2.98669 7.96875 3.375V4.16091C8.28956 4.23703 8.59102 4.36355 8.86388 4.53239L9.42009 3.97617C9.69464 3.70158 10.1399 3.70158 10.4145 3.97617C10.689 4.25077 10.689 4.69594 10.4145 4.97053L9.85823 5.52675C10.0271 5.79961 10.1536 6.10106 10.2297 6.42188H11.0156C11.4039 6.42188 11.7188 6.73669 11.7188 7.125C11.7188 7.51331 11.4039 7.82812 11.0156 7.82812H10.2297C10.1536 8.14894 10.0271 8.45039 9.85823 8.72325L10.4145 9.27947C10.689 9.55406 10.689 9.99923 10.4145 10.2738C10.2772 10.4111 10.0972 10.4798 9.9173 10.4798C9.73739 10.4798 9.55739 10.4112 9.42014 10.2738L8.86392 9.71761C8.59106 9.88645 8.28961 10.013 7.9688 10.0891V10.875C7.9688 11.2633 7.65398 11.5781 7.26567 11.5781C6.87736 11.5781 6.56255 11.2633 6.56255 10.875V10.0891C6.24173 10.013 5.94028 9.88645 5.66742 9.71761L5.1112 10.2738C4.97391 10.4111 4.79395 10.4798 4.61405 10.4798C4.43414 10.4798 4.25414 10.4112 4.11689 10.2738C3.8423 9.99923 3.8423 9.55406 4.11689 9.27947L4.67311 8.72325C4.50427 8.45039 4.37775 8.14894 4.30163 7.82812H3.51562C3.12731 7.82812 2.8125 7.51331 2.8125 7.125C2.8125 6.73669 3.12731 6.42188 3.51562 6.42188Z" fill="#706FE5"/>
<path d="M0 19.3125V21.4219C0 22.8435 1.15655 24 2.57812 24H11.9531C13.3747 24 14.5312 22.8435 14.5312 21.4219V19.3125H0ZM8.20312 22.3594H6.32812C5.93981 22.3594 5.625 22.0446 5.625 21.6562C5.625 21.2679 5.93981 20.9531 6.32812 20.9531H8.20312C8.59144 20.9531 8.90625 21.2679 8.90625 21.6562C8.90625 22.0446 8.59144 22.3594 8.20312 22.3594Z" fill="#2E3E5C"/>
<rect x="4.59375" y="13.6406" width="5.39062" height="1.45312" rx="0.726562" fill="#706FE5"/>
<rect x="4.45312" y="1.03125" width="5.39062" height="1.45312" rx="0.726562" fill="#EAE9FB"/>
</svg>
