<svg width="24" height="22" viewBox="0 0 24 22" fill="none" xmlns="http://www.w3.org/2000/svg">
<path d="M0.947289 13.8977C0.424116 13.8977 0 13.4736 0 12.9504C0 12.4273 0.424116 12.0031 0.947289 12.0031H23.0525C23.5757 12.0031 23.9998 12.4273 23.9998 12.9504C23.9998 13.4736 23.5757 13.8977 23.0525 13.8977H0.947289Z" fill="#706FE5"/>
<path d="M12.0032 8.84136C9.56173 8.84136 7.58252 6.86215 7.58252 4.42068C7.58252 1.97921 9.56173 0 12.0032 0C14.4447 0 16.4239 1.97921 16.4239 4.42068C16.4239 6.86215 14.4447 8.84136 12.0032 8.84136Z" fill="#706FE5"/>
<path d="M12.0031 5.05224C12.3519 5.05224 12.6346 4.7695 12.6346 4.42072C12.6346 4.07194 12.3519 3.78919 12.0031 3.78919C11.6543 3.78919 11.3716 4.07194 11.3716 4.42072C11.3716 4.7695 11.6543 5.05224 12.0031 5.05224Z" fill="#706FE5"/>
<path d="M9.47609 9.51436C7.87227 12.4333 3.32777 20.7534 3.11414 21.1437C2.94428 21.454 2.55265 21.5643 2.24582 21.3882C0.100971 20.1572 -0.634539 17.4285 0.601478 15.3004L6.36216 5.14091C6.60524 7.0632 7.80842 8.68622 9.47609 9.51436V9.51436Z" fill="#2E3E5C"/>
<path d="M17.6399 5.13617L23.3988 15.2959C24.6363 17.4291 23.9019 20.1571 21.7598 21.388C21.4527 21.5645 21.0605 21.4539 20.8908 21.143C17.0252 14.0604 15.3135 10.9275 14.5315 9.51132C16.1973 8.68156 17.3985 7.05817 17.6399 5.13617V5.13617Z" fill="#2E3E5C"/>
</svg>
