<svg width="50" height="39" viewBox="0 0 50 39" fill="none" xmlns="http://www.w3.org/2000/svg">
<path d="M17.8539 17.1L22.5539 0.799996H10.6539L4.25391 15.5C1.35391 21.9 0.953906 24.1 0.953906 26.9C0.953906 33.7 5.75391 38.1 12.3539 38.1C18.8539 38.1 23.7539 33.7 23.7539 26.9C23.7539 22.2 21.4539 18.8 17.8539 17.1ZM44.0539 17.1L48.7539 0.799996H36.8539L30.4539 15.5C27.5539 21.9 27.1539 24.1 27.1539 26.9C27.1539 33.7 31.9539 38.1 38.5539 38.1C45.0539 38.1 49.9539 33.7 49.9539 26.9C49.9539 22.2 47.6539 18.8 44.0539 17.1Z" fill="#706FE5"/>
</svg>
