<svg width="577" height="608" viewBox="0 0 577 608" fill="none" xmlns="http://www.w3.org/2000/svg">
<circle cx="319.5" cy="338.5" r="193.5" fill="#706FE5" fill-opacity="0.15" stroke="#706FE5" stroke-width="10"/>
<path d="M469 462C447 485 426.497 503.908 395.594 516.342C364.691 528.775 329.94 532.835 294.765 528.12C259.591 523.404 216.5 506 190.5 483" stroke="#706FE5" stroke-width="10"/>
<g opacity="0.8" filter="url(#filter0_d_103_2)">
<circle cx="514.665" cy="110.665" r="42" transform="rotate(-17.8082 514.665 110.665)" fill="#2B2C34"/>
</g>
<path d="M561.82 97.9875C568.914 120.072 556.762 143.726 534.677 150.82C512.593 157.914 488.939 145.762 481.845 123.677C474.751 101.593 486.903 77.9388 508.988 70.8448C531.072 63.7508 554.726 75.903 561.82 97.9875Z" fill="#2B2C34"/>
<circle cx="521.833" cy="110.832" r="42" transform="rotate(-17.8082 521.833 110.832)" fill="#706FE5" fill-opacity="0.15"/>
<g clip-path="url(#clip0_103_2)">
<path d="M521.752 136.317C523.772 135.668 525.451 134.244 526.421 132.356C527.39 130.469 527.571 128.274 526.922 126.254L524.475 118.637L516.858 121.084C514.838 121.733 513.159 123.158 512.189 125.045C511.22 126.932 511.039 129.127 511.688 131.147C512.337 133.167 513.762 134.847 515.649 135.816C517.537 136.786 519.732 136.966 521.752 136.317V136.317Z" fill="#0ACF83"/>
<path d="M506.795 115.914C506.146 113.894 506.326 111.699 507.296 109.812C508.265 107.924 509.945 106.5 511.965 105.851L519.582 103.404L524.475 118.637L516.858 121.084C514.838 121.733 512.643 121.553 510.756 120.583C508.869 119.614 507.444 117.934 506.795 115.914V115.914Z" fill="#A259FF"/>
<path d="M501.902 100.681C501.253 98.6616 501.433 96.4677 502.401 94.581C503.369 92.6944 505.047 91.2694 507.066 90.6192L514.683 88.1726L519.576 103.406L511.965 105.851C509.945 106.5 507.75 106.319 505.863 105.35C503.975 104.38 502.551 102.701 501.902 100.681V100.681Z" fill="#F24E1E"/>
<path d="M514.688 88.1707L522.305 85.724C524.325 85.0751 526.52 85.2553 528.408 86.2248C530.295 87.1944 531.72 88.874 532.368 90.894C533.017 92.9141 532.837 95.1092 531.868 96.9965C530.898 98.8837 529.219 100.308 527.198 100.957L519.582 103.404L514.688 88.1707Z" fill="#FF7262"/>
<path d="M537.262 106.127C537.911 108.148 537.731 110.343 536.761 112.23C535.791 114.117 534.112 115.542 532.092 116.191C530.072 116.84 527.877 116.66 525.989 115.69C524.102 114.72 522.677 113.041 522.028 111.021C521.38 109.001 521.56 106.806 522.529 104.918C523.499 103.031 525.178 101.606 527.198 100.957C529.219 100.309 531.414 100.489 533.301 101.458C535.188 102.428 536.613 104.107 537.262 106.127V106.127Z" fill="#1ABCFE"/>
</g>
<g opacity="0.7" filter="url(#filter1_d_103_2)">
<circle cx="131.167" cy="100.864" r="34.1835" transform="rotate(-17.8082 131.167 100.864)" fill="#470137"/>
</g>
<path d="M169.546 90.5458C175.319 108.52 165.429 127.772 147.454 133.546C129.48 139.32 110.228 129.429 104.454 111.455C98.6806 93.4801 108.571 74.2284 126.546 68.4546C144.52 62.6808 163.772 72.5714 169.546 90.5458Z" fill="#470137"/>
<path d="M134.242 90.6068L131.996 101.852L141.501 109.471C141.565 109.532 141.611 109.6 141.619 109.681C141.628 109.762 141.533 109.733 141.428 109.792L137.162 111.339C136.864 111.447 136.653 111.502 136.455 111.363C135.78 110.723 135.093 110.107 134.419 109.467C133.751 108.845 133.039 108.218 132.301 107.579C131.564 106.94 130.827 106.301 130.083 105.644L130.045 105.657C129.945 106.6 129.806 107.556 129.668 108.512C129.53 109.469 129.392 110.425 129.266 111.356C129.121 112.293 128.983 113.25 128.831 114.169C128.824 114.382 128.682 114.455 128.477 114.529L124.379 116.014C124.305 116.041 124.263 116.099 124.229 116.006C124.183 115.938 124.175 115.857 124.192 115.787L126.541 104.188L117.434 96.6782C117.351 96.6239 117.305 96.5561 117.329 96.5054C117.346 96.436 117.414 96.3904 117.488 96.3634L121.717 94.8307C121.81 94.797 121.91 94.7819 121.991 94.7735C122.079 94.7837 122.155 94.8193 122.238 94.8736C122.882 95.5463 123.582 96.1987 124.301 96.8443C125.038 97.4832 125.75 98.1102 126.5 98.7238C127.23 99.344 127.923 99.9778 128.605 100.637L128.642 100.623C128.736 99.6621 128.856 98.7126 128.982 97.7818C129.108 96.8509 129.253 95.9133 129.398 94.9757C129.543 94.0381 129.662 93.0887 129.795 92.1764C129.787 92.0952 129.797 92.0072 129.839 91.9497C129.9 91.8854 129.968 91.8398 130.068 91.8246L133.998 90.4C134.085 90.3477 134.198 90.3698 134.25 90.4562C134.276 90.468 134.266 90.556 134.242 90.6068Z" fill="#FF61F6"/>
<path d="M149.97 107.139C148.599 107.657 147.119 107.877 145.662 107.752C144.292 107.637 143 107.094 141.931 106.238C140.83 105.352 139.981 104.058 139.367 102.363C138.849 100.991 138.71 99.5032 138.967 98.0613C139.236 96.594 139.896 95.2168 140.882 94.1006C141.922 92.9016 143.359 91.9805 145.203 91.3121C145.296 91.2784 145.426 91.2311 145.601 91.189C145.775 91.1468 145.961 91.0793 146.192 91.0169L144.058 85.1309C144.011 85.0005 144.04 84.9058 144.17 84.8585L147.951 83.4879C148.038 83.4355 148.139 83.483 148.185 83.5508C148.192 83.5694 148.198 83.588 148.198 83.588L154.626 101.321C154.747 101.656 154.901 102.022 155.068 102.425C155.247 102.802 155.401 103.168 155.534 103.478C155.582 103.608 155.566 103.74 155.456 103.843C154.636 104.604 153.72 105.274 152.744 105.838C151.855 106.35 150.939 106.788 149.97 107.139ZM150.445 102.752L147.474 94.556C147.293 94.5795 147.112 94.603 146.938 94.6451C146.726 94.7008 146.515 94.7564 146.31 94.8307C145.583 95.094 144.911 95.5063 144.38 96.0779C143.862 96.6241 143.49 97.2856 143.297 98.0302C143.103 98.7747 143.188 99.6499 143.54 100.619C143.757 101.277 144.105 101.889 144.552 102.422C144.92 102.858 145.362 103.203 145.869 103.441C146.345 103.648 146.868 103.753 147.406 103.727C147.969 103.712 148.518 103.598 149.04 103.409C149.319 103.307 149.573 103.194 149.808 103.088C150.057 103.019 150.249 102.907 150.445 102.752Z" fill="#FF61F6"/>
<g opacity="0.8" filter="url(#filter2_d_103_2)">
<circle cx="35.4978" cy="31.4066" r="23.4515" transform="rotate(-17.8082 35.4978 31.4066)" fill="#333333"/>
</g>
<path d="M61.8278 24.3279C65.7889 36.6592 59.0035 49.8668 46.6722 53.8279C34.3409 57.789 21.1333 51.0036 17.1722 38.6723C13.2111 26.341 19.9965 13.1334 32.3278 9.1723C44.6591 5.21121 57.8667 11.9966 61.8278 24.3279Z" fill="#333333"/>
<g clip-path="url(#clip1_103_2)">
<path d="M30.11 24.1527L36.7154 21.2133L43.7851 19.7L51.3612 24.9861L43.7675 42.8713L27.0989 32.8862L30.11 24.1527Z" fill="#FDB300"/>
<path d="M32.0126 31.2863L43.7675 42.8713L27.0989 32.8862L32.0126 31.2863Z" fill="#EA6C00"/>
<path d="M46.4474 26.5861L43.7674 42.8712L51.3611 24.9861L46.4474 26.5861Z" fill="#EA6C00"/>
<path d="M32.0127 31.2861L46.4476 26.586L43.7676 42.8711L32.0127 31.2861Z" fill="#FDAD00"/>
<path d="M36.7155 21.2134L30.1101 24.1529L32.0127 31.2864L36.7155 21.2134Z" fill="#FDD231"/>
<path d="M36.7152 21.2134L43.785 19.7L46.4473 26.5862L36.7152 21.2134Z" fill="#FDD231"/>
<path d="M51.3611 24.9862L43.785 19.7L46.4474 26.5861L51.3611 24.9862Z" fill="#FDAD00"/>
<path d="M27.0989 32.8863L30.11 24.1528L32.0126 31.2863L27.0989 32.8863Z" fill="#FDAD00"/>
<path d="M36.7155 21.2134L32.0127 31.2864L46.4476 26.5862L36.7155 21.2134Z" fill="#FEEEB7"/>
</g>
<defs>
<filter id="filter0_d_103_2" x="452.654" y="54.6536" width="124.022" height="124.023" filterUnits="userSpaceOnUse" color-interpolation-filters="sRGB">
<feFlood flood-opacity="0" result="BackgroundImageFix"/>
<feColorMatrix in="SourceAlpha" type="matrix" values="0 0 0 0 0 0 0 0 0 0 0 0 0 0 0 0 0 0 127 0" result="hardAlpha"/>
<feOffset dy="6"/>
<feGaussianBlur stdDeviation="10"/>
<feComposite in2="hardAlpha" operator="out"/>
<feColorMatrix type="matrix" values="0 0 0 0 0.168627 0 0 0 0 0.172549 0 0 0 0 0.203922 0 0 0 0.2 0"/>
<feBlend mode="normal" in2="BackgroundImageFix" result="effect1_dropShadow_103_2"/>
<feBlend mode="normal" in="SourceGraphic" in2="effect1_dropShadow_103_2" result="shape"/>
</filter>
<filter id="filter1_d_103_2" x="80.696" y="55.2764" width="100.941" height="100.941" filterUnits="userSpaceOnUse" color-interpolation-filters="sRGB">
<feFlood flood-opacity="0" result="BackgroundImageFix"/>
<feColorMatrix in="SourceAlpha" type="matrix" values="0 0 0 0 0 0 0 0 0 0 0 0 0 0 0 0 0 0 127 0" result="hardAlpha"/>
<feOffset dy="4.88336"/>
<feGaussianBlur stdDeviation="8.13893"/>
<feComposite in2="hardAlpha" operator="out"/>
<feColorMatrix type="matrix" values="0 0 0 0 0.168627 0 0 0 0 0.172549 0 0 0 0 0.203922 0 0 0 0.2 0"/>
<feBlend mode="normal" in2="BackgroundImageFix" result="effect1_dropShadow_103_2"/>
<feBlend mode="normal" in="SourceGraphic" in2="effect1_dropShadow_103_2" result="shape"/>
</filter>
<filter id="filter2_d_103_2" x="0.87267" y="0.131572" width="69.2503" height="69.2505" filterUnits="userSpaceOnUse" color-interpolation-filters="sRGB">
<feFlood flood-opacity="0" result="BackgroundImageFix"/>
<feColorMatrix in="SourceAlpha" type="matrix" values="0 0 0 0 0 0 0 0 0 0 0 0 0 0 0 0 0 0 127 0" result="hardAlpha"/>
<feOffset dy="3.35021"/>
<feGaussianBlur stdDeviation="5.58368"/>
<feComposite in2="hardAlpha" operator="out"/>
<feColorMatrix type="matrix" values="0 0 0 0 0.168627 0 0 0 0 0.172549 0 0 0 0 0.203922 0 0 0 0.2 0"/>
<feBlend mode="normal" in2="BackgroundImageFix" result="effect1_dropShadow_103_2"/>
<feBlend mode="normal" in="SourceGraphic" in2="effect1_dropShadow_103_2" result="shape"/>
</filter>
<clipPath id="clip0_103_2">
<rect width="48" height="48" fill="white" transform="translate(491.833 95.5125) rotate(-17.8082)"/>
</clipPath>
<clipPath id="clip1_103_2">
<rect width="25.5676" height="22.7885" fill="white" transform="translate(24.5842 25.1633) rotate(-18.0359)"/>
</clipPath>
</defs>
</svg>
