<svg width="32" height="30" viewBox="0 0 32 30" fill="none" xmlns="http://www.w3.org/2000/svg">
<g clip-path="url(#clip0_3_637)">
<path d="M6.11 7.15274L12.7154 4.21328L19.7851 2.69995L27.3612 7.98614L19.7675 25.8713L3.09891 15.8862L6.11 7.15274Z" fill="#FDB300"/>
<path d="M8.0126 14.2863L19.7675 25.8713L3.09888 15.8862L8.0126 14.2863Z" fill="#EA6C00"/>
<path d="M22.4474 9.58605L19.7674 25.8712L27.3611 7.98608L22.4474 9.58605Z" fill="#EA6C00"/>
<path d="M8.0127 14.2861L22.4476 9.58596L19.7676 25.8711L8.0127 14.2861Z" fill="#FDAD00"/>
<path d="M12.7155 4.21339L6.11008 7.15285L8.01272 14.2864L12.7155 4.21339Z" fill="#FDD231"/>
<path d="M12.7152 4.21337L19.785 2.70003L22.4473 9.58619L12.7152 4.21337Z" fill="#FDD231"/>
<path d="M27.3611 7.98617L19.785 2.69999L22.4474 9.58614L27.3611 7.98617Z" fill="#FDAD00"/>
<path d="M3.0989 15.8863L6.10998 7.15281L8.01262 14.2863L3.0989 15.8863Z" fill="#FDAD00"/>
<path d="M12.7155 4.21339L8.01272 14.2864L22.4476 9.58621L12.7155 4.21339Z" fill="#FEEEB7"/>
</g>
<defs>
<clipPath id="clip0_3_637">
<rect width="25.5676" height="22.7885" fill="white" transform="translate(0.584229 8.16333) rotate(-18.0359)"/>
</clipPath>
</defs>
</svg>
