<svg width="24" height="24" viewBox="0 0 24 24" fill="none" xmlns="http://www.w3.org/2000/svg">
<path fill-rule="evenodd" clip-rule="evenodd" d="M14.6108 17.28L15.3788 21.12H16.7998C17.0649 21.12 17.2798 21.3349 17.2798 21.6C17.2798 21.8651 17.0649 22.08 16.7998 22.08H7.19983C6.93473 22.08 6.71983 21.8651 6.71983 21.6C6.71983 21.3349 6.93473 21.12 7.19983 21.12H8.83183L9.59983 17.28H5.27983C3.58712 17.28 2.18677 16.0283 1.95386 14.4L22.0458 14.4C21.8129 16.0283 20.4125 17.28 18.7198 17.28H14.6108Z" fill="#2E3E5C"/>
<path d="M1.91992 13.44V3.36001C1.91992 2.56472 2.56463 1.92001 3.35992 1.92001H20.6399C21.4352 1.92001 22.0799 2.56472 22.0799 3.36001V13.44H1.91992Z" fill="#706FE5"/>
</svg>
