<svg width="41" height="34" viewBox="0 0 41 34" fill="none" xmlns="http://www.w3.org/2000/svg">
<path d="M18.2418 7.6068L15.9959 18.8524L25.501 26.4708C25.5652 26.5318 25.6109 26.5996 25.6192 26.6809C25.6276 26.7621 25.5329 26.7332 25.4278 26.7924L21.1624 28.3385C20.8643 28.4465 20.6527 28.5022 20.4548 28.3632C19.7801 27.7226 19.0935 27.1075 18.4187 26.467C17.7508 25.8451 17.0388 25.218 16.3014 24.5791C15.5641 23.9402 14.8267 23.3013 14.0826 22.6438L14.0453 22.6573C13.9445 23.6 13.8064 24.5563 13.6683 25.5125C13.5302 26.4687 13.3922 27.4249 13.2659 28.3558C13.1211 29.2934 12.983 30.2496 12.8314 31.1686C12.8244 31.3819 12.6822 31.4545 12.4773 31.5288L8.37943 33.0141C8.30492 33.0412 8.26254 33.0987 8.22879 33.0055C8.18315 32.9378 8.17477 32.8565 8.19177 32.7871L10.5413 21.1878L1.43385 13.6782C1.35096 13.6239 1.30533 13.5561 1.32908 13.5054C1.34608 13.436 1.41383 13.3904 1.48834 13.3634L5.71657 11.8307C5.8097 11.797 5.90958 11.7819 5.99084 11.7735C6.07885 11.7837 6.15498 11.8193 6.23787 11.8736C6.8821 12.5463 7.5822 13.1987 8.30093 13.8443C9.03829 14.4832 9.75027 15.1102 10.4995 15.7238C11.2301 16.344 11.9235 16.9778 12.6049 17.637L12.6422 17.6235C12.7363 16.6621 12.8557 15.7126 12.982 14.7818C13.1082 13.8509 13.253 12.9133 13.3979 11.9757C13.5427 11.0381 13.6622 10.0887 13.7951 9.17643C13.7867 9.09518 13.797 9.00717 13.8394 8.94966C13.9004 8.8854 13.9681 8.83977 14.068 8.82463L17.9982 7.40004C18.0846 7.34765 18.198 7.36977 18.2504 7.45615C18.2757 7.46803 18.2655 7.55604 18.2418 7.6068Z" fill="#FF61F6"/>
<path d="M33.9701 24.1386C32.5985 24.6569 31.1189 24.8771 29.6616 24.752C28.2923 24.6372 26.9997 24.0942 25.9308 23.2383C24.8297 22.3519 23.9813 21.0578 23.3669 19.3628C22.8487 17.9912 22.7097 16.5032 22.9668 15.0613C23.2357 13.594 23.8956 12.2168 24.8819 11.1006C25.9224 9.90157 27.3588 8.98053 29.2028 8.31212C29.296 8.27836 29.4263 8.2311 29.6007 8.18896C29.7751 8.14682 29.9614 8.0793 30.1917 8.01691L28.0581 2.13092C28.0109 2.00053 28.0397 1.90577 28.1701 1.85851L31.9513 0.487926C32.0377 0.435541 32.1392 0.483041 32.1849 0.550796C32.1916 0.569422 32.1984 0.588049 32.1984 0.588049L38.6259 18.3205C38.7475 18.6558 38.9011 19.0216 39.0683 19.4246C39.2473 19.8023 39.401 20.1681 39.5344 20.478C39.5816 20.6083 39.5663 20.7404 39.4561 20.8435C38.6361 21.6044 37.7197 22.2737 36.7441 22.8381C35.8549 23.3501 34.9387 23.7875 33.9701 24.1386ZM34.4452 19.7516L31.4745 11.556C31.2933 11.5795 31.1122 11.603 30.9378 11.6451C30.7262 11.7008 30.5145 11.7564 30.3096 11.8307C29.5832 12.094 28.9108 12.5063 28.3804 13.0779C27.8618 13.6241 27.4905 14.2856 27.2967 15.0302C27.103 15.7747 27.1884 16.6499 27.5395 17.6185C27.7572 18.2772 28.1053 18.8886 28.5516 19.4223C28.9201 19.8577 29.3616 20.2034 29.8691 20.4409C30.3446 20.6479 30.8675 20.7534 31.4058 20.7269C31.9695 20.7122 32.518 20.5977 33.0396 20.4087C33.319 20.3074 33.573 20.1942 33.8084 20.0878C34.0573 20.0187 34.2487 19.9072 34.4452 19.7516Z" fill="#FF61F6"/>
</svg>
